<svg viewBox="0 0 400 260" xmlns="http://www.w3.org/2000/svg" width="400" height="260">
  <defs>
    <linearGradient id="brand" x1="0%" y1="0%" x2="0%" y2="100%">
      <stop offset="0%"   stop-color="#FF9D00"/>
      <stop offset="28%"  stop-color="#FF0066"/>
      <stop offset="57%"  stop-color="#D600AA"/>
      <stop offset="100%" stop-color="#0066FF"/>
    </linearGradient>
  </defs>

  <rect width="400" height="260" fill="#0A0A0A"/>
  <line x1="55" y1="0" x2="55" y2="260" stroke="rgba(255,255,255,0.03)" stroke-width="1"/>
  <line x1="220" y1="0" x2="220" y2="260" stroke="rgba(255,255,255,0.03)" stroke-width="1"/>
  <line x1="330" y1="0" x2="330" y2="260" stroke="rgba(255,255,255,0.03)" stroke-width="1"/>
  <line x1="0" y1="110" x2="400" y2="110" stroke="rgba(255,255,255,0.03)" stroke-width="1"/>
  <line x1="0" y1="220" x2="400" y2="220" stroke="rgba(255,255,255,0.03)" stroke-width="1"/>

  <!-- NAV -->
  <rect width="400" height="28" fill="rgba(0,0,0,0.75)"/>
  <rect width="400" height="1" y="27" fill="rgba(255,255,255,0.07)"/>
  <rect width="400" height="2" fill="url(#brand)" y="0"/>
  <text x="14" y="18" font-family="monospace" font-size="9" font-weight="bold" fill="url(#brand)">BlackRoad OS</text>
  <text x="300" y="18" font-family="monospace" font-size="7" fill="rgba(255,255,255,0.4)">Blog</text>

  <!-- Tags -->
  <rect x="40" y="37" width="22" height="11" rx="6" fill="none" stroke="rgba(255,157,0,0.4)" stroke-width="1"/>
  <text x="51" y="46" text-anchor="middle" font-family="monospace" font-size="5.5" fill="#FF9D00">ai</text>
  <rect x="67" y="37" width="34" height="11" rx="6" fill="none" stroke="rgba(255,157,0,0.4)" stroke-width="1"/>
  <text x="84" y="46" text-anchor="middle" font-family="monospace" font-size="5.5" fill="#FF9D00">identity</text>
  <rect x="106" y="37" width="34" height="11" rx="6" fill="none" stroke="rgba(255,157,0,0.4)" stroke-width="1"/>
  <text x="123" y="46" text-anchor="middle" font-family="monospace" font-size="5.5" fill="#FF9D00">agents</text>

  <!-- Title -->
  <text x="40" y="72" font-family="monospace" font-size="15" font-weight="900" fill="white">Introducing CECE 2.2</text>
  <!-- subtitle -->
  <text x="40" y="88" font-family="monospace" font-size="7.5" fill="rgba(255,255,255,0.5)">The portable AI identity that follows you everywhere</text>
  <!-- author/date -->
  <text x="40" y="103" font-family="monospace" font-size="7" fill="rgba(255,255,255,0.35)">✍ Alexa  ·  February 23, 2026</text>

  <!-- divider -->
  <rect x="40" y="113" width="320" height="1" fill="rgba(255,255,255,0.06)"/>

  <!-- Section 1 -->
  <text x="40" y="133" font-family="monospace" font-size="10" font-weight="bold" fill="white">What is CECE?</text>
  <rect x="40" y="139" width="320" height="4.5" rx="2" fill="rgba(255,255,255,0.08)"/>
  <rect x="40" y="139" width="260" height="4.5" rx="2" fill="rgba(255,255,255,0.13)"/>
  <rect x="40" y="148" width="320" height="4.5" rx="2" fill="rgba(255,255,255,0.08)"/>
  <rect x="40" y="148" width="300" height="4.5" rx="2" fill="rgba(255,255,255,0.13)"/>
  <rect x="40" y="157" width="320" height="4.5" rx="2" fill="rgba(255,255,255,0.08)"/>
  <rect x="40" y="157" width="180" height="4.5" rx="2" fill="rgba(255,255,255,0.13)"/>

  <!-- Section 2 -->
  <text x="40" y="182" font-family="monospace" font-size="10" font-weight="bold" fill="white">What is new in 2.2</text>
  <rect x="40" y="188" width="320" height="4.5" rx="2" fill="rgba(255,255,255,0.08)"/>
  <rect x="40" y="188" width="240" height="4.5" rx="2" fill="rgba(255,255,255,0.13)"/>
  <rect x="40" y="197" width="320" height="4.5" rx="2" fill="rgba(255,255,255,0.08)"/>
  <rect x="40" y="197" width="290" height="4.5" rx="2" fill="rgba(255,255,255,0.13)"/>
  <rect x="40" y="206" width="320" height="4.5" rx="2" fill="rgba(255,255,255,0.08)"/>
  <rect x="40" y="206" width="200" height="4.5" rx="2" fill="rgba(255,255,255,0.13)"/>

  <!-- footer -->
  <rect x="0" y="248" width="400" height="1" fill="rgba(255,255,255,0.05)"/>
  <text x="200" y="256" text-anchor="middle" font-family="monospace" font-size="6" fill="rgba(255,255,255,0.2)">© 2026 BlackRoad OS, Inc.</text>
</svg>
