<svg viewBox="0 0 400 260" xmlns="http://www.w3.org/2000/svg" width="400" height="260">
  <defs>
    <linearGradient id="brand" x1="0%" y1="0%" x2="0%" y2="100%">
      <stop offset="0%"   stop-color="#FF9D00"/>
      <stop offset="28%"  stop-color="#FF0066"/>
      <stop offset="57%"  stop-color="#D600AA"/>
      <stop offset="100%" stop-color="#0066FF"/>
    </linearGradient>
  </defs>

  <rect width="400" height="260" fill="#0A0A0A"/>
  <line x1="55" y1="0" x2="55" y2="260" stroke="rgba(255,255,255,0.03)" stroke-width="1"/>
  <line x1="110" y1="0" x2="110" y2="260" stroke="rgba(255,255,255,0.03)" stroke-width="1"/>
  <line x1="220" y1="0" x2="220" y2="260" stroke="rgba(255,255,255,0.03)" stroke-width="1"/>
  <line x1="330" y1="0" x2="330" y2="260" stroke="rgba(255,255,255,0.03)" stroke-width="1"/>
  <line x1="0" y1="55" x2="400" y2="55" stroke="rgba(255,255,255,0.03)" stroke-width="1"/>
  <line x1="0" y1="110" x2="400" y2="110" stroke="rgba(255,255,255,0.03)" stroke-width="1"/>
  <line x1="0" y1="165" x2="400" y2="165" stroke="rgba(255,255,255,0.03)" stroke-width="1"/>
  <line x1="0" y1="220" x2="400" y2="220" stroke="rgba(255,255,255,0.03)" stroke-width="1"/>

  <!-- NAV -->
  <rect width="400" height="28" fill="rgba(0,0,0,0.75)"/>
  <rect width="400" height="1" y="27" fill="rgba(255,255,255,0.07)"/>
  <rect width="400" height="2" fill="url(#brand)" y="0"/>
  <text x="14" y="18" font-family="monospace" font-size="9" font-weight="bold" fill="url(#brand)">BlackRoad OS</text>
  <text x="300" y="18" font-family="monospace" font-size="7" fill="rgba(255,255,255,0.4)">Docs</text>
  <text x="330" y="18" font-family="monospace" font-size="7" fill="rgba(255,255,255,0.4)">Home</text>

  <!-- Author label -->
  <text x="40" y="52" font-family="monospace" font-size="7" letter-spacing="2" fill="#FF9D00" font-weight="700">BLACKROAD OS DOCS</text>
  <!-- Title -->
  <text x="40" y="76" font-family="monospace" font-size="18" font-weight="900" fill="white">Getting Started</text>
  <!-- Subtitle -->
  <text x="40" y="93" font-family="monospace" font-size="8" fill="rgba(255,255,255,0.5)">Up and running with BlackRoad OS in 5 minutes</text>
  <!-- Divider -->
  <rect x="40" y="103" width="320" height="1" fill="rgba(255,255,255,0.07)"/>

  <!-- Section 1 -->
  <text x="40" y="122" font-family="monospace" font-size="10" font-weight="bold" fill="white">Installation</text>
  <rect x="40" y="128" width="320" height="5" rx="2" fill="rgba(255,255,255,0.07)"/>
  <rect x="40" y="128" width="230" height="5" rx="2" fill="rgba(255,255,255,0.12)"/>
  <rect x="40" y="137" width="320" height="5" rx="2" fill="rgba(255,255,255,0.07)"/>
  <rect x="40" y="137" width="180" height="5" rx="2" fill="rgba(255,255,255,0.12)"/>
  <rect x="40" y="146" width="320" height="5" rx="2" fill="rgba(255,255,255,0.07)"/>
  <rect x="40" y="146" width="260" height="5" rx="2" fill="rgba(255,255,255,0.12)"/>

  <!-- Section 2 -->
  <text x="40" y="170" font-family="monospace" font-size="10" font-weight="bold" fill="white">Initialize CECE</text>
  <rect x="40" y="176" width="320" height="5" rx="2" fill="rgba(255,255,255,0.07)"/>
  <rect x="40" y="176" width="200" height="5" rx="2" fill="rgba(255,255,255,0.12)"/>
  <rect x="40" y="185" width="320" height="5" rx="2" fill="rgba(255,255,255,0.07)"/>
  <rect x="40" y="185" width="290" height="5" rx="2" fill="rgba(255,255,255,0.12)"/>

  <!-- Section 3 -->
  <text x="40" y="210" font-family="monospace" font-size="10" font-weight="bold" fill="white">Your First Template</text>
  <rect x="40" y="216" width="320" height="5" rx="2" fill="rgba(255,255,255,0.07)"/>
  <rect x="40" y="216" width="240" height="5" rx="2" fill="rgba(255,255,255,0.12)"/>
  <rect x="40" y="225" width="320" height="5" rx="2" fill="rgba(255,255,255,0.07)"/>
  <rect x="40" y="225" width="160" height="5" rx="2" fill="rgba(255,255,255,0.12)"/>

  <!-- footer line -->
  <rect x="0" y="252" width="400" height="1" fill="rgba(255,255,255,0.05)"/>
  <text x="200" y="258" text-anchor="middle" font-family="monospace" font-size="6" fill="rgba(255,255,255,0.25)">© 2026 BlackRoad OS, Inc.</text>
</svg>
