<svg viewBox="0 0 400 260" xmlns="http://www.w3.org/2000/svg" width="400" height="260">
  <defs>
    <linearGradient id="brand" x1="0%" y1="0%" x2="0%" y2="100%">
      <stop offset="0%"   stop-color="#FF9D00"/>
      <stop offset="28%"  stop-color="#FF0066"/>
      <stop offset="57%"  stop-color="#D600AA"/>
      <stop offset="100%" stop-color="#0066FF"/>
    </linearGradient>
  </defs>

  <rect width="400" height="260" fill="#0A0A0A"/>
  <line x1="55" y1="0" x2="55" y2="260" stroke="rgba(255,255,255,0.03)" stroke-width="1"/>
  <line x1="220" y1="0" x2="220" y2="260" stroke="rgba(255,255,255,0.03)" stroke-width="1"/>
  <line x1="330" y1="0" x2="330" y2="260" stroke="rgba(255,255,255,0.03)" stroke-width="1"/>
  <line x1="0" y1="55" x2="400" y2="55" stroke="rgba(255,255,255,0.03)" stroke-width="1"/>
  <line x1="0" y1="110" x2="400" y2="110" stroke="rgba(255,255,255,0.03)" stroke-width="1"/>
  <line x1="0" y1="165" x2="400" y2="165" stroke="rgba(255,255,255,0.03)" stroke-width="1"/>

  <!-- NAV -->
  <rect width="400" height="28" fill="rgba(0,0,0,0.75)"/>
  <rect width="400" height="1" y="27" fill="rgba(255,255,255,0.07)"/>
  <rect width="400" height="2" fill="url(#brand)" y="0"/>
  <text x="14" y="18" font-family="monospace" font-size="9" font-weight="bold" fill="url(#brand)">BlackRoad OS</text>

  <!-- Hero -->
  <text x="200" y="50" text-anchor="middle" font-family="monospace" font-size="7" letter-spacing="2" fill="#FF9D00" font-weight="700">FEATURES</text>
  <text x="200" y="68" text-anchor="middle" font-family="monospace" font-size="15" font-weight="900" fill="url(#brand)">Why BlackRoad OS</text>
  <text x="200" y="83" text-anchor="middle" font-family="monospace" font-size="7.5" fill="rgba(255,255,255,0.5)">Built different. Built for agents.</text>

  <!-- Row 1: icon left, text right -->
  <rect x="18" y="98" width="52" height="52" rx="10" fill="rgba(255,255,255,0.05)" stroke="rgba(255,255,255,0.07)" stroke-width="1"/>
  <text x="44" y="130" text-anchor="middle" font-family="serif" font-size="24">🔒</text>
  <text x="84" y="112" font-family="monospace" font-size="9" font-weight="bold" fill="white">Tokenless Architecture</text>
  <rect x="84" y="120" width="290" height="4" rx="2" fill="rgba(255,255,255,0.08)"/>
  <rect x="84" y="120" width="200" height="4" rx="2" fill="rgba(255,255,255,0.15)"/>
  <rect x="84" y="128" width="290" height="4" rx="2" fill="rgba(255,255,255,0.08)"/>
  <rect x="84" y="128" width="250" height="4" rx="2" fill="rgba(255,255,255,0.15)"/>
  <rect x="84" y="136" width="290" height="4" rx="2" fill="rgba(255,255,255,0.08)"/>
  <rect x="84" y="136" width="160" height="4" rx="2" fill="rgba(255,255,255,0.15)"/>

  <!-- Row 2: icon right, text left (reversed) -->
  <text x="22" y="176" font-family="monospace" font-size="9" font-weight="bold" fill="white">Edge-Native Deployment</text>
  <rect x="22" y="184" width="280" height="4" rx="2" fill="rgba(255,255,255,0.08)"/>
  <rect x="22" y="184" width="220" height="4" rx="2" fill="rgba(255,255,255,0.15)"/>
  <rect x="22" y="192" width="280" height="4" rx="2" fill="rgba(255,255,255,0.08)"/>
  <rect x="22" y="192" width="180" height="4" rx="2" fill="rgba(255,255,255,0.15)"/>
  <rect x="330" y="161" width="52" height="52" rx="10" fill="rgba(255,255,255,0.05)" stroke="rgba(255,255,255,0.07)" stroke-width="1"/>
  <text x="356" y="193" text-anchor="middle" font-family="serif" font-size="24">⚡</text>

  <!-- Row 3: icon left -->
  <rect x="18" y="220" width="38" height="38" rx="8" fill="rgba(255,255,255,0.05)" stroke="rgba(255,255,255,0.07)" stroke-width="1"/>
  <text x="37" y="244" text-anchor="middle" font-family="serif" font-size="18">💾</text>
  <text x="68" y="233" font-family="monospace" font-size="8" font-weight="bold" fill="white">PS-SHA∞ Memory</text>
  <rect x="68" y="240" width="310" height="3.5" rx="1.5" fill="rgba(255,255,255,0.08)"/>
  <rect x="68" y="240" width="210" height="3.5" rx="1.5" fill="rgba(255,255,255,0.15)"/>
  <rect x="68" y="248" width="310" height="3.5" rx="1.5" fill="rgba(255,255,255,0.08)"/>
  <rect x="68" y="248" width="170" height="3.5" rx="1.5" fill="rgba(255,255,255,0.15)"/>
</svg>
